<svg xmlns="http://www.w3.org/2000/svg" viewBox="0 0 357 222.28"><defs><style>.cls-1{fill:#fafafa;}.cls-2{fill:#272525;}.cls-3{fill:#e6e6e6;}.cls-4{fill:#6e6d8d;}.cls-5{fill:#da7d81;}</style></defs><g id="Capa_2" data-name="Capa 2"><g id="Capa_1-2" data-name="Capa 1"><path class="cls-1" d="M323.8,212c-88.66,14.28-186.23,13.05-290.6,0A33.19,33.19,0,0,1,0,178.83V41.66A33.2,33.2,0,0,1,33.2,8.46c101.29-10.77,198.57-11.78,290.6,0A33.2,33.2,0,0,1,357,41.66V178.83A33.19,33.19,0,0,1,323.8,212Z"/><path class="cls-2" d="M255.39,112.47c-.09-1-.14-2-.14-3C255.34,110.46,255.39,111.46,255.39,112.47Z"/><path class="cls-2" d="M273.71,111c-.78,0-1.56,0-2.32-.08C272.13,110.94,272.91,111,273.71,111Z"/><polygon class="cls-2" points="130.15 121.02 173.05 46.69 173.05 193.85 130.15 193.85 104.06 166.21 96.88 158.6 76.52 193.85 33.61 193.85 70.25 130.39 86.53 102.19 130.15 26.64 173.05 26.64 130.15 100.96 113.16 130.39 120.34 138 130.15 148.39 130.15 121.02"/><polygon class="cls-2" points="76.52 91.58 33.61 91.58 63.06 122.78 79.35 94.58 76.52 91.58"/><path class="cls-3" d="M323.39,84.3a33.58,33.58,0,0,1-33.58,33.58c-.81-.06-1.59-.08-2.33-.08-11.26-.06-16.12,5.51-16.13,15.36v0c0,1,0,2,.13,3a33.58,33.58,0,1,1-33.58-33.58h.22q18,0,18.1-18.31a33.59,33.59,0,1,1,67.17,0Z"/><circle class="cls-4" cx="289.81" cy="84.29" r="20.74"/><circle class="cls-5" cx="237.9" cy="136.2" r="20.74"/></g></g></svg>